<svg xmlns="http://www.w3.org/2000/svg" viewBox="0 0 500 500"><g id="freepik--background-complete--inject-127"><rect x="51.18" y="39.71" width="167.92" height="301.65" style="fill:#ebebeb"></rect><rect x="57.89" y="48.46" width="152.77" height="283.92" style="fill:#fafafa"></rect><polygon points="226.2 344.08 219.1 341.36 219.1 34.59 226.2 34.59 226.2 344.08" style="fill:#e0e0e0"></polygon><path d="M95.34,231.85,135,195c5-4.68,11.6-9.71,18.06-7.41,3.11,1.11,5.45,3.77,8.5,5,6.09,2.53,13-1.13,17.73-5.78s8.38-10.46,14.06-13.83,14.49-2.94,17.29,3v40.14L153,240.85Z" style="fill:#f5f5f5"></path><path d="M57.89,208.79c14.62-6,29.21-.9,39.68,10.92,2.2,2.49,4.2,5.36,7.23,6.74,4.1,1.85,8.83.46,13.31,0a33.43,33.43,0,0,1,31.46,15.25l-48.81,24-42.87-.31Z" style="fill:#e0e0e0"></path><path d="M210.66,209c-9.63-4.65-18.1,1-27,6.93s-17.14,13.59-27.56,16c-7,1.6-14.42.71-21.15,3.11-13.72,4.88-21.64,22.29-36.18,23.13-7.89.45-15-4.34-22-7.93s-12.6-7-18.88-2.19v84.36H210.66Z" style="fill:#ebebeb"></path><rect x="57.89" y="130.13" width="156.09" height="3.02" style="fill:#e0e0e0"></rect><rect x="57.89" y="197.74" width="156.09" height="3.02" style="fill:#e0e0e0"></rect><rect x="57.89" y="265.36" width="156.09" height="3.02" style="fill:#e0e0e0"></rect><rect x="29.89" y="232.18" width="208.78" height="7.72" transform="translate(-101.76 370.31) rotate(-90)" style="fill:#e0e0e0"></rect><rect x="87.31" y="48.46" width="3.5" height="83.19" style="fill:#e0e0e0"></rect><rect x="117.47" y="48.46" width="3.5" height="83.19" style="fill:#e0e0e0"></rect><rect x="147.62" y="48.46" width="3.5" height="83.19" style="fill:#e0e0e0"></rect><rect x="177.78" y="48.46" width="3.5" height="83.19" style="fill:#e0e0e0"></rect><rect x="44.08" y="34.59" width="7.1" height="308.64" style="fill:#e0e0e0"></rect><rect x="44.08" y="31.48" width="182.12" height="8.23" style="fill:#e0e0e0"></rect><rect x="39.04" y="345.1" width="191.97" height="7.67" style="fill:#e0e0e0"></rect><polygon points="219.1 341.36 231.01 345.1 39.04 345.1 51.18 341.36 219.1 341.36" style="fill:#ebebeb"></polygon><circle cx="395.41" cy="231.57" r="65.14" transform="translate(-62.8 228.06) rotate(-29.92)" style="fill:#ebebeb"></circle><path d="M416.55,231.74c0,.06-.45.53-1.46,1.25a21.31,21.31,0,0,1-4.65,2.42,24.29,24.29,0,0,1-7.63,1.58,24.42,24.42,0,0,1-22.43-12.56,21.22,21.22,0,0,1-2-4.84,5.21,5.21,0,0,1-.31-1.9c.21-.07.75,2.64,3,6.32a25.75,25.75,0,0,0,4.84,5.76,23.78,23.78,0,0,0,16.84,6.15,25.9,25.9,0,0,0,7.4-1.29C414.27,233.27,416.43,231.55,416.55,231.74Z" style="fill:#e0e0e0"></path><path d="M439,231.3c-.23,0,.53-1.93,0-4.93a12,12,0,0,0-2.11-4.79,9.92,9.92,0,0,0-11.27-3.79,12,12,0,0,0-4.57,2.55c-2.27,2-2.81,4-3,3.9s0-.51.32-1.35a9.85,9.85,0,0,1,2.12-3.15,11.88,11.88,0,0,1,4.81-3A10.62,10.62,0,0,1,437.75,221a11.86,11.86,0,0,1,2,5.28,9.46,9.46,0,0,1-.22,3.79C439.33,230.89,439.08,231.33,439,231.3Z" style="fill:#e0e0e0"></path><path d="M380.78,209c-.22,0,.54-1.94,0-4.93a12,12,0,0,0-2.1-4.79,9.9,9.9,0,0,0-11.28-3.79A11.86,11.86,0,0,0,362.8,198c-2.28,2-2.81,4-3,3.9-.06,0,0-.51.33-1.35a9.58,9.58,0,0,1,2.11-3.15,12,12,0,0,1,4.82-3,10.61,10.61,0,0,1,12.48,4.2,12,12,0,0,1,2,5.28,9.84,9.84,0,0,1-.22,3.79C381.09,208.57,380.85,209,380.78,209Z" style="fill:#e0e0e0"></path><path d="M369.26,218.32a8.52,8.52,0,0,0-4.17-10.91,37.41,37.41,0,0,0-11.45-3.53c-4.18-.58-8.91-.3-11.38,3.92a8.75,8.75,0,0,0-1.11,5.33c.51,5,4.37,8.66,8.74,10.6a17.46,17.46,0,0,0,10.57,1.35,12.58,12.58,0,0,0,8.51-6.15C369.07,218.73,369.17,218.53,369.26,218.32Z" style="fill:#e0e0e0"></path><path d="M447.37,249.14a8.55,8.55,0,0,0-2.28-11.47,37.39,37.39,0,0,0-10.7-5.39c-4-1.27-8.73-1.79-11.88,2a8.75,8.75,0,0,0-2,5.06c-.34,5,2.85,9.27,6.84,11.92a17.44,17.44,0,0,0,10.2,3.1,12.55,12.55,0,0,0,9.41-4.64Q447.19,249.41,447.37,249.14Z" style="fill:#e0e0e0"></path><circle cx="353.04" cy="104.06" r="41.23" transform="translate(111.55 381.81) rotate(-65.42)" style="fill:#ebebeb"></circle><path d="M365.53,99.26a3.79,3.79,0,0,1-.57,1.07,13.41,13.41,0,0,1-2.18,2.51,15.67,15.67,0,0,1-10,4.06,15.33,15.33,0,0,1-6-1.07,15.54,15.54,0,0,1-4.26-2.49,13.9,13.9,0,0,1-2.3-2.39c-.46-.64-.66-1-.62-1a36.34,36.34,0,0,0,3.24,3,16.5,16.5,0,0,0,4.18,2.26,15.07,15.07,0,0,0,11.35-.28,16.19,16.19,0,0,0,4.06-2.47A35.93,35.93,0,0,0,365.53,99.26Z" style="fill:#e0e0e0"></path><path d="M378.66,93.8a12.6,12.6,0,0,0-1.17-2.9,7.56,7.56,0,0,0-2.35-2.33,6.25,6.25,0,0,0-7.52.38,7.52,7.52,0,0,0-2.1,2.56,13.07,13.07,0,0,0-.87,3,1.76,1.76,0,0,1-.12-.87,6,6,0,0,1,.52-2.35,7.55,7.55,0,0,1,2.14-2.87,6.7,6.7,0,0,1,8.32-.42,7.44,7.44,0,0,1,2.43,2.63,6.13,6.13,0,0,1,.75,2.29A1.87,1.87,0,0,1,378.66,93.8Z" style="fill:#e0e0e0"></path><path d="M339.19,94.15a13.2,13.2,0,0,0-1.17-2.9,7.56,7.56,0,0,0-2.35-2.33,6.25,6.25,0,0,0-7.52.38,7.52,7.52,0,0,0-2.1,2.56,13.07,13.07,0,0,0-.87,3,1.79,1.79,0,0,1-.12-.88,6,6,0,0,1,.52-2.34,7.55,7.55,0,0,1,2.14-2.87,6.7,6.7,0,0,1,8.32-.42A7.54,7.54,0,0,1,338.47,91a6.13,6.13,0,0,1,.75,2.29A1.89,1.89,0,0,1,339.19,94.15Z" style="fill:#e0e0e0"></path><path d="M334.56,102.32a5.39,5.39,0,0,0-5-5.46,23.46,23.46,0,0,0-7.56.57c-2.6.63-5.32,1.89-5.8,4.95a5.54,5.54,0,0,0,.59,3.39c1.45,2.84,4.58,4.09,7.6,4.23a11,11,0,0,0,6.54-1.67,7.91,7.91,0,0,0,3.58-5.59A3,3,0,0,0,334.56,102.32Z" style="fill:#e0e0e0"></path><path d="M387.71,102.36a5.4,5.4,0,0,0-4-6.22,23.44,23.44,0,0,0-7.55-.7c-2.66.19-5.56,1-6.54,3.91a5.61,5.61,0,0,0,0,3.44c1,3,3.83,4.8,6.79,5.44a11.06,11.06,0,0,0,6.73-.54,8,8,0,0,0,4.47-4.92C387.65,102.64,387.68,102.5,387.71,102.36Z" style="fill:#e0e0e0"></path><polygon points="100.39 435.64 100.39 480.59 166.11 480.59 238.6 480.59 238.6 435.64 100.39 435.64" style="fill:#f5f5f5"></polygon><polygon points="94.59 423.08 94.59 435.64 243.43 435.64 243.43 423.08 166.11 423.08 94.59 423.08" style="fill:#e0e0e0"></polygon><polygon points="169.01 480.59 238.6 480.59 238.6 435.64 243.43 435.64 243.43 423.08 166.11 423.08 166.11 434.48 169.01 480.59" style="fill:#e0e0e0"></polygon><rect x="119.72" y="442.89" width="28.03" height="6.77" style="fill:#e0e0e0"></rect><rect x="116.11" y="458.11" width="35.99" height="14.29" style="fill:#fff"></rect></g><g id="freepik--Plant--inject-127"><path d="M367.45,435.84s-22.2-25.57-30.58-51.13-4.4-22.62-4.4-22.62,11.31,24.83,19.9,36.82,23.88,29.59,23.88,29.59Z" style="fill:#455a64"></path><path d="M371.88,366.07a1.29,1.29,0,0,0-2.41.82c1.36,9,4.28,30.05,4.17,43.71-.15,17.76,0,24.62,0,24.62h9.25s-1.64-36.7-3.73-47.89C377.69,379.49,374.58,370.78,371.88,366.07Z" style="fill:#455a64"></path><path d="M376.92,432.24a97.94,97.94,0,0,0,7.61-27.6c.76-6.54-.6-15.37-2.62-27.15a73.26,73.26,0,0,1-1.17-13.07,2.2,2.2,0,0,1,4.14-1c1.12,2,4.35,8.79,5.17,13.05,2.24,11.64,4.77,17.46,2.83,28.5s-9.1,28-9.1,28Z" style="fill:#455a64"></path><path d="M385.25,433s24.38-52.4,26.07-60.17,7.44-25.69,8.11-24.68,1.69,10.48-2.7,21.3-23.16,65.15-23.16,65.15h-8.32" style="fill:#455a64"></path><path d="M374.25,430.64a5.35,5.35,0,0,1-.68-.47c-.44-.33-1.09-.79-1.89-1.44-1.63-1.28-3.9-3.22-6.56-5.79a110.28,110.28,0,0,1-17.69-22.7,149.17,149.17,0,0,1-12.07-26.16c-1.23-3.48-2.12-6.33-2.7-8.31-.3-1-.51-1.76-.65-2.29a4.8,4.8,0,0,1-.19-.8,4,4,0,0,1,.29.77c.18.56.43,1.32.74,2.26.64,2,1.59,4.79,2.85,8.24a158.76,158.76,0,0,0,12.18,26,115.13,115.13,0,0,0,17.5,22.71c2.61,2.59,4.85,4.57,6.43,5.89.77.67,1.41,1.16,1.82,1.51A4.12,4.12,0,0,1,374.25,430.64Z" style="fill:#263238"></path><path d="M376.92,405.5a8.83,8.83,0,0,1-.22-1.54c-.12-1.08-.27-2.5-.45-4.2-.39-3.55-1-8.43-1.85-13.8s-1.83-10.21-2.57-13.7l-.89-4.13a8,8,0,0,1-.27-1.52,9.06,9.06,0,0,1,.47,1.48c.27,1,.63,2.36,1.05,4.09.84,3.47,1.86,8.31,2.72,13.69s1.41,10.29,1.71,13.85c.14,1.78.24,3.23.28,4.22A9.3,9.3,0,0,1,376.92,405.5Z" style="fill:#263238"></path><path d="M382.63,363a3.79,3.79,0,0,1,.29.66c.18.5.43,1.14.73,1.95s.69,1.89,1,3.12.84,2.62,1.19,4.2l.6,2.46c.21.86.35,1.77.54,2.7.4,1.86.64,3.88.94,6a96.41,96.41,0,0,1,.58,13.89A97.75,97.75,0,0,1,387,411.76c-.45,2.09-.84,4.09-1.37,5.92-.25.91-.46,1.81-.73,2.65l-.78,2.41c-.46,1.55-1,2.9-1.48,4.1s-.88,2.22-1.27,3-.64,1.41-.86,1.89a3.44,3.44,0,0,1-.34.64,3.68,3.68,0,0,1,.24-.68l.78-1.93c.35-.83.77-1.85,1.18-3.06s1-2.56,1.4-4.11l.75-2.41c.25-.85.45-1.74.69-2.65.51-1.83.88-3.81,1.32-5.9A101.59,101.59,0,0,0,388,397.93a100.09,100.09,0,0,0-.54-13.81c-.28-2.11-.51-4.12-.88-6-.18-.93-.32-1.84-.51-2.7s-.39-1.67-.57-2.46c-.33-1.57-.77-3-1.1-4.2s-.67-2.28-1-3.13-.48-1.48-.64-2A3.65,3.65,0,0,1,382.63,363Z" style="fill:#263238"></path><path d="M419.15,349.18a.86.86,0,0,1,0,.24l-.1.68c-.11.6-.25,1.48-.49,2.61-.47,2.25-1.25,5.5-2.47,9.43s-2.88,8.55-4.86,13.63-4.25,10.59-6.41,16.48-3.9,11.61-5.49,16.81-3.07,9.88-4.52,13.74a88.32,88.32,0,0,1-3.85,9c-.49,1-.94,1.81-1.23,2.34-.14.24-.25.44-.35.6a.57.57,0,0,1-.13.2,1,1,0,0,1,.09-.22c.08-.17.17-.38.29-.63.26-.54.68-1.33,1.15-2.38,1-2.08,2.31-5.13,3.69-9s2.85-8.54,4.4-13.75,3.25-11,5.46-16.85,4.47-11.42,6.46-16.48,3.69-9.65,5-13.56,2.1-7.13,2.63-9.37c.26-1.11.43-2,.57-2.58.07-.27.12-.49.16-.67A1,1,0,0,1,419.15,349.18Z" style="fill:#263238"></path><path d="M344,337.61a2.1,2.1,0,0,0-3.45,2.14,59.23,59.23,0,0,0,3.06,7.88c3.35,7.12,13.2,32.68,17.81,46.72s11.1,40.23,11.1,40.23l9.85-1.6s-9-43-17.81-58.53C357.45,362,350.38,344,344,337.61Z" style="fill:#455a64"></path><path d="M364.07,403.13a5.35,5.35,0,0,1,.51,1.18c.29.77.69,1.9,1.13,3.31.91,2.8,2,6.73,3.14,11.08s2,8.33,2.69,11.2c.29,1.36.54,2.5.74,3.41a5.83,5.83,0,0,1,.2,1.27,7.16,7.16,0,0,1-.4-1.22l-.9-3.37c-.75-3-1.74-6.85-2.84-11.16s-2.16-8.28-3-11.11c-.39-1.33-.71-2.45-1-3.35A6.14,6.14,0,0,1,364.07,403.13Z" style="fill:#263238"></path><path d="M377.43,433.78a1,1,0,0,1-.06-.26l-.11-.78c-.1-.68-.19-1.69-.4-3-.36-2.58-1-6.31-2.07-10.86a156.61,156.61,0,0,0-4.6-15.72c-2-5.83-4.56-12.13-7.42-18.65-5.8-13-11.58-24.59-15.38-33.13-1.92-4.26-3.41-7.74-4.39-10.16-.5-1.21-.86-2.16-1.11-2.8l-.27-.74a2.09,2.09,0,0,1-.08-.25s0,.07.13.23.19.42.32.72l1.2,2.76c1,2.39,2.57,5.85,4.53,10.09,3.89,8.5,9.72,20,15.52,33.07,2.88,6.53,5.4,12.85,7.4,18.7a149.91,149.91,0,0,1,4.51,15.8,109.07,109.07,0,0,1,1.91,10.91c.18,1.3.24,2.32.3,3,0,.32.05.58.07.78A.92.92,0,0,1,377.43,433.78Z" style="fill:#263238"></path><path d="M382.33,433a9,9,0,0,1-.34-1.65c-.19-1.16-.45-2.68-.76-4.53-.68-3.81-1.72-9.06-3.2-14.78s-3.14-10.81-4.42-14.47c-.62-1.76-1.14-3.22-1.54-4.32a10.09,10.09,0,0,1-.52-1.61,12.61,12.61,0,0,1,.71,1.53c.43,1,1,2.46,1.7,4.27a144.12,144.12,0,0,1,4.57,14.47c1.49,5.73,2.47,11,3.06,14.85.28,1.92.5,3.48.61,4.56A12.9,12.9,0,0,1,382.33,433Z" style="fill:#263238"></path><rect x="364.11" y="431.57" width="38.42" height="46.81" style="fill:#FF725E"></rect><rect x="364.11" y="431.57" width="38.42" height="46.81" style="opacity:0.30000000000000004"></rect><rect x="356.19" y="431.57" width="34.09" height="46.81" style="fill:#FF725E"></rect></g><g id="freepik--Character--inject-127"><polygon points="179.61 378.24 200.17 478.69 237.71 478.69 239.77 430.95 243.17 478.69 282.59 478.69 297.56 367.31 179.61 378.24" style="fill:#ffbe9d"></polygon><path d="M297.43,348.93l-35.75-9.82-83.8,8.19s-.08.9-.21,2.47c-.89,10.61-3.25,39.12-3.86,44.92-1,9.48-10.19,55.58-4.69,62,7.33,8.61,19.63-4.09,31-.75s20.33,11.14,32,6.68,11.32-12.8,24-11.13,20.49,12.24,35.52,8.34,22.81-5.56,22.81-5.56Z" style="fill:#FF725E"></path><g style="opacity:0.30000000000000004"><path d="M176.7,361.38c10.36,10.65,25.89,15.6,40.64,17.39a145.2,145.2,0,0,0,82.43-14.49q-27.12,4-54.49,6.1a143.44,143.44,0,0,1-31.95-.61c-11.87-1.48-25.91-5.07-36.63-8.39"></path></g><path d="M209.29,416.35a3,3,0,1,1-3-3A3,3,0,0,1,209.29,416.35Z" style="fill:#fff"></path><path d="M240.73,416.35a3,3,0,1,1-3-3A3,3,0,0,1,240.73,416.35Z" style="fill:#fff"></path><path d="M275.73,402.91a3,3,0,1,1-3-3A3,3,0,0,1,275.73,402.91Z" style="fill:#fff"></path><path d="M288.64,438.79a3,3,0,1,1-3-3A3,3,0,0,1,288.64,438.79Z" style="fill:#fff"></path><path d="M286.76,377.39a3,3,0,1,1-3-3A3,3,0,0,1,286.76,377.39Z" style="fill:#fff"></path><path d="M301.18,408.68a3,3,0,1,1-3-3A3,3,0,0,1,301.18,408.68Z" style="fill:#fff"></path><path d="M259.25,433.83a3,3,0,1,1-3-3A3,3,0,0,1,259.25,433.83Z" style="fill:#fff"></path><path d="M225.92,447.54a3,3,0,0,1-3,3c-2.89,0-3-1.33-3-3a3,3,0,1,1,5.94,0Z" style="fill:#fff"></path><path d="M248.85,386.78a3,3,0,1,1-3-3A3,3,0,0,1,248.85,386.78Z" style="fill:#fff"></path><path d="M187,380.36a3,3,0,1,1-3-3A3,3,0,0,1,187,380.36Z" style="fill:#fff"></path><circle cx="183.23" cy="408.64" r="2.97" style="fill:#fff"></circle><path d="M181.23,438.79a3,3,0,1,1-3-3A3,3,0,0,1,181.23,438.79Z" style="fill:#fff"></path><path d="M196,419.91c.15,0,.07,6.19-.16,13.81s-.55,13.81-.69,13.8-.07-6.19.16-13.81S195.82,419.9,196,419.91Z" style="fill:#263238"></path><path d="M256,445.54a1.7,1.7,0,0,1-.16-.45l-.34-1.31c-.28-1.15-.68-2.81-1.14-4.86-.94-4.11-2.16-9.81-3.28-16.14s-1.9-12.11-2.29-16.31c-.2-2.1-.33-3.8-.37-5,0-.54,0-1-.06-1.36a1.7,1.7,0,0,1,0-.47,1.5,1.5,0,0,1,.09.46l.15,1.35c.11,1.18.29,2.87.54,5,.48,4.18,1.31,9.94,2.43,16.26s2.29,12,3.13,16.15c.4,2,.73,3.66,1,4.89l.25,1.34A2.05,2.05,0,0,1,256,445.54Z" style="fill:#263238"></path><path d="M263,445.93s-.09-.14-.23-.43-.34-.76-.56-1.27c-.48-1.1-1.15-2.71-1.94-4.72-1.57-4-3.62-9.61-5.4-15.95a130,130,0,0,1-3.52-16.48c-.3-2.14-.51-3.87-.6-5.07,0-.55-.08-1-.11-1.38a2.6,2.6,0,0,1,0-.49,1.46,1.46,0,0,1,.11.47c.06.38.13.83.21,1.38.16,1.19.42,2.91.76,5a157.11,157.11,0,0,0,3.66,16.4c1.78,6.31,3.76,11.92,5.25,16l1.78,4.78c.18.52.34.95.47,1.3A1.69,1.69,0,0,1,263,445.93Z" style="fill:#263238"></path><g style="opacity:0.30000000000000004"><path d="M250.68,400.84c1.32,15.66,6.31,29.2,11.53,44-1.47-1.77-4.26-1.79-6-3.3-1.38-1.2-1.85-3.11-2.24-4.89a281.88,281.88,0,0,1-5.82-39.61s-.47-2.56.59-2.61C250.12,394.4,250.54,399.28,250.68,400.84Z"></path></g><g style="opacity:0.30000000000000004"><path d="M194.83,446.31c.12.93.4,2.06,1.31,2.28a1.58,1.58,0,0,0,1.66-.95,4.64,4.64,0,0,0,.32-2q0-16.69-.45-33.38a1.49,1.49,0,0,0-.4-1.17,1,1,0,0,0-1.35.38,2.91,2.91,0,0,0-.31,1.52l-.69,34.37"></path></g><path d="M220.46,165.35a24.13,24.13,0,0,1-5.68.6c-1.95-.21-25.51-.43-28.25,1.09s2.89,61.13,2.89,61.13l-2.89,58.76s-12.72,24.93-12.72,41.62v31.87s44,15.18,65,13.22S300,365,300,365s4.56-8.67,1.74-26.45-9.33-50.08-9.33-50.08l-7.37-44,4.56-49,9.1-17.13-27-10.88a21.71,21.71,0,0,0-7.89-1.57Z" style="fill:#455a64"></path><path d="M303.21,353.74l-.33.1-1,.25c-.86.21-2.11.53-3.74.91-3.24.76-8,1.82-13.81,3a252.74,252.74,0,0,1-46.31,5,175.21,175.21,0,0,1-25.62-1.72A141.57,141.57,0,0,1,192,356.77a120.87,120.87,0,0,1-13.3-4.77c-1.55-.63-2.7-1.22-3.5-1.58l-.9-.43c-.21-.1-.31-.16-.3-.17a2.77,2.77,0,0,1,.32.12l.92.38c.81.33,2,.89,3.54,1.49a132.2,132.2,0,0,0,13.32,4.61,146.84,146.84,0,0,0,20.45,4.33,178.82,178.82,0,0,0,25.55,1.68,263.49,263.49,0,0,0,46.24-4.83c5.86-1.1,10.58-2.09,13.84-2.8l3.75-.81,1-.2Z" style="fill:#263238"></path><path d="M267.59,165.92l-46.3-.56a1,1,0,0,0-1,.81c-1.35,8.34,1.26,17.49,7.71,22.94,7.51,6.34,19,6.57,27.69,1.87,8.38-4.56,13.35-14.09,12.84-24.14A1,1,0,0,0,267.59,165.92Z" style="fill:#ffbe9d"></path><path d="M298.68,178.31s10.15,8.93,9.63,20.22-5.21,60.26-9.2,71.55S281,319.4,269.06,331s-39.94,40.12-39.94,40.12L204.28,359v-4.86a11.47,11.47,0,0,1,1-7.3c1.91-3.64,29.33-45.15,32.9-51.92s19.9-34.56,19.9-34.56L266.8,240l10.94-27.44Z" style="fill:#455a64"></path><path d="M186.53,167s-16-.7-17.8,33-1.82,73.12,2.12,81.32c0,0-3.74,7.26,1.52,17.29S204.28,359,204.28,359L220,340.5s-2.09-23.06-4.82-29.73-11.07-41.43-11.07-41.43l-12-44.14-5.15-27.1Z" style="fill:#455a64"></path><path d="M220.39,323.36a2,2,0,0,1-.13-.28l-.34-.86c-.3-.79-.72-1.91-1.26-3.32-1.09-2.88-2.58-7.09-4.36-12.31s-3.76-11.47-5.76-18.48-4-14.77-5.89-23c-3.69-16.42-6-31.49-7.47-42.42-.71-5.46-1.24-9.89-1.55-13-.15-1.5-.27-2.68-.36-3.53,0-.38-.06-.68-.08-.92a1.82,1.82,0,0,1,0-.31,1.49,1.49,0,0,1,.07.31l.13.91c.11.84.26,2,.45,3.52.38,3.06,1,7.48,1.72,12.93,1.53,10.91,3.92,26,7.61,42.36C205,273.22,207,281,209,288s3.95,13.26,5.65,18.5,3.17,9.45,4.21,12.35c.49,1.43.88,2.55,1.16,3.35.12.37.22.65.29.88A1.48,1.48,0,0,1,220.39,323.36Z" style="fill:#263238"></path><path d="M171.87,297.62a3.54,3.54,0,0,1,.33.57c.23.44.52,1,.87,1.69.76,1.48,1.8,3.63,3.08,6.29,2.57,5.32,6,12.75,10,20.82a226.43,226.43,0,0,0,11.19,20.15c1.58,2.49,2.9,4.49,3.85,5.84.44.65.79,1.17,1.07,1.57a3.67,3.67,0,0,1,.34.57,3.53,3.53,0,0,1-.43-.5c-.29-.39-.67-.9-1.15-1.52-1-1.32-2.36-3.29-4-5.76a197.18,197.18,0,0,1-11.34-20.12c-4-8.09-7.35-15.53-9.83-20.89L172.89,300l-.78-1.73A2.46,2.46,0,0,1,171.87,297.62Z" style="fill:#263238"></path><path d="M272.92,167.93a1.23,1.23,0,0,1,.07.26c0,.17.09.43.15.77a29,29,0,0,1,.35,3,24.26,24.26,0,0,1-.15,4.78,16,16,0,0,1-2,6,32.39,32.39,0,0,1-4.63,6.11c-.94,1-2,2-3.06,3a31.77,31.77,0,0,1-3.55,2.84,39,39,0,0,1-8.76,4.2,43.91,43.91,0,0,1-10.12,2.57,24.67,24.67,0,0,1-10.38-1.1,22.57,22.57,0,0,1-8.28-5.09,26.93,26.93,0,0,1-5.26-7.06,31.88,31.88,0,0,1-2.62-7.2,33.52,33.52,0,0,1-.75-11c.13-1.3.3-2.3.43-3,.06-.31.12-.56.16-.77s.06-.26.07-.25a1,1,0,0,1,0,.26c0,.21-.06.46-.11.78-.1.68-.23,1.68-.33,3a34.56,34.56,0,0,0,.91,10.93,31.91,31.91,0,0,0,2.65,7.09,26.52,26.52,0,0,0,5.2,6.91,22.24,22.24,0,0,0,8.12,5,24.43,24.43,0,0,0,10.16,1.07,43.79,43.79,0,0,0,10-2.54,39,39,0,0,0,8.67-4.12,31.31,31.31,0,0,0,3.51-2.78c1.09-1,2.11-1.94,3-2.93a32.91,32.91,0,0,0,4.62-6,15.82,15.82,0,0,0,2-5.85,24.47,24.47,0,0,0,.23-4.73c0-1.3-.16-2.3-.24-3,0-.31-.08-.57-.1-.77A1.1,1.1,0,0,1,272.92,167.93Z" style="fill:#263238"></path><path d="M254.47,254.79a8,8,0,0,1-1,1.17c-.68.73-1.7,1.77-3,3-2.55,2.52-6.18,5.89-10.36,9.42s-8.11,6.54-11,8.64c-1.45,1-2.64,1.88-3.48,2.43a8.4,8.4,0,0,1-1.32.82,8.53,8.53,0,0,1,1.21-1l3.37-2.57c2.85-2.16,6.74-5.21,10.91-8.73s7.82-6.85,10.44-9.29l3.09-2.9A9.77,9.77,0,0,1,254.47,254.79Z" style="fill:#263238"></path><path d="M234.59,365.5a6.07,6.07,0,0,1-1.33-.33c-.85-.23-2.06-.63-3.54-1.16a80,80,0,0,1-11.2-5.09,78.6,78.6,0,0,1-10.29-6.75c-1.24-1-2.23-1.78-2.88-2.37a7.69,7.69,0,0,1-1-.94,6.08,6.08,0,0,1,1.12.79c.69.54,1.7,1.3,3,2.23a99.57,99.57,0,0,0,10.32,6.59,96.62,96.62,0,0,0,11.08,5.19c1.46.58,2.65,1,3.47,1.32A7.07,7.07,0,0,1,234.59,365.5Z" style="fill:#263238"></path><path d="M171.6,260.49c-.64-1.13-1.65-2.55-2.9-2.2-.84.23-.91,2.9-.76,4.47.61,6.72.43,10.15.95,18.24.46,3.52,0,4.51,1.32,12.05.57,3.3,2.45,6.44,3.93,9.44a9.08,9.08,0,0,0,2.37,3.26,3.67,3.67,0,0,0,3.81.55c1.71-.9,2-3.19,2-5.11A84.41,84.41,0,0,0,171.6,260.49Z" style="fill:#263238"></path><g style="opacity:0.30000000000000004"><path d="M254.18,255,251.43,258c-11.93,9.69-22.1,18.69-35,27,1.61,2.09,3.2,2.59,5.8,2.19a19.48,19.48,0,0,0,7.2-3.12A108.5,108.5,0,0,0,244.2,273C249.53,268.28,254.73,262.08,254.18,255Z"></path></g><g style="opacity:0.30000000000000004"><path d="M229.79,371.38c7.58-8.34,17.9-14.08,27-20.7S274.9,336.74,280.59,327c6.55-11.19,6.76-19.35,8.23-32.23-5.05,11-9.06,24-15.73,32.51-12.41,15.8-31.55,27.34-43.3,44.08"></path></g><path d="M297.43,274.73s-.06.19-.2.56l-.64,1.62c-.57,1.41-1.43,3.51-2.58,6.2-2.27,5.41-5.83,13.16-10,23-1.05,2.46-2.1,5-3.2,7.78a65.91,65.91,0,0,1-3.91,8.31,36.16,36.16,0,0,1-2.72,4q-1.5,2-3.12,3.95c-2.18,2.63-4.53,5.26-7.1,7.82s-5.45,4.94-8.31,7.47-5.79,5.11-8.71,7.83A158.93,158.93,0,0,0,230,371.53l-.11.15-.18-.07-1.07-.41h0l-26.37-13.5-.15-.08v-.17a28.8,28.8,0,0,1,1.24-6.81,50.29,50.29,0,0,1,7.59-14.23c1.54-2.16,3.15-4.24,4.76-6.3s3.15-4.13,4.71-6.17c6.16-8.2,11.75-16.37,16.79-24.33s9.51-15.73,13.44-23.13c2-3.68,3.79-7.32,5.55-10.79s3.34-6.85,4.78-10.11c5.92-13,10-23.77,12.71-31.27,1.38-3.75,2.34-6.69,3-8.67l.78-2.26c.18-.51.28-.76.28-.76s-.07.26-.23.78l-.73,2.27c-.65,2-1.59,4.95-2.94,8.7-2.64,7.53-6.69,18.36-12.57,31.36-1.43,3.27-3.08,6.62-4.75,10.14S253,273,251,276.66c-3.91,7.42-8.37,15.21-13.41,23.19S227,316,220.79,324.23c-1.56,2-3.11,4.12-4.72,6.17s-3.21,4.14-4.74,6.29a50.13,50.13,0,0,0-7.52,14.09,28.71,28.71,0,0,0-1.21,6.68l-.14-.24,26.36,13.51h0l1.08.42-.29.08a157.2,157.2,0,0,1,17-18.26c2.93-2.73,5.86-5.32,8.73-7.84s5.76-4.87,8.3-7.43,4.91-5.16,7.09-7.77a65,65,0,0,0,5.83-7.92,66.18,66.18,0,0,0,3.91-8.26c1.11-2.71,2.18-5.31,3.23-7.77,4.23-9.82,7.84-17.55,10.16-22.93,1.16-2.68,2-4.75,2.66-6.17.29-.69.52-1.23.67-1.6S297.43,274.73,297.43,274.73Z" style="fill:#263238"></path><path d="M291.05,289.65c1.41-3.19.87-5.75-.29-6.65-1.82-1.4-4.46-.19-6.27,1.24a30.87,30.87,0,0,0-11.05,28.39,5.79,5.79,0,0,0,1,2.85,3.64,3.64,0,0,0,2.79,1,3.36,3.36,0,0,0,2.84-2c4.26-10.93,7.1-15.71,10.94-24.91" style="fill:#263238"></path><path d="M229.35,199.84a11.69,11.69,0,0,1,3.26-7.58c.13.1-1,1.61-1.84,3.7S229.5,199.86,229.35,199.84Z" style="fill:#263238"></path><path d="M247,199.85a17.25,17.25,0,0,1-.83-2.94,15.61,15.61,0,0,1-.78-2.95,6.49,6.49,0,0,1,1.28,2.81A6.42,6.42,0,0,1,247,199.85Z" style="fill:#263238"></path><path d="M261.58,192.24c-.13.06-.59-.76-1.28-1.67s-1.32-1.59-1.23-1.71.93.42,1.65,1.4S261.71,192.19,261.58,192.24Z" style="fill:#263238"></path><path d="M272.38,178.72c-.09.13-1.06-.49-2.39-.79s-2.47-.19-2.5-.35a4.59,4.59,0,0,1,4.89,1.14Z" style="fill:#263238"></path><path d="M223.52,184.46a16.19,16.19,0,0,0-3.08,1.36,14.83,14.83,0,0,0-2.39,2.38,4.4,4.4,0,0,1,2.09-2.81A4.51,4.51,0,0,1,223.52,184.46Z" style="fill:#263238"></path><path d="M220,173.13a23,23,0,0,1-3,.49,22.35,22.35,0,0,1-2.94.67,5.74,5.74,0,0,1,2.84-1.18A5.68,5.68,0,0,1,220,173.13Z" style="fill:#263238"></path><path d="M192,194.36a33.23,33.23,0,0,1-1.37-3.26,85.07,85.07,0,0,0-3.63-7.71,82.54,82.54,0,0,0-4.44-7.27,33.77,33.77,0,0,1-2-2.94s.26.22.66.69,1,1.16,1.61,2a57.82,57.82,0,0,1,4.59,7.24,59.24,59.24,0,0,1,3.52,7.81c.38,1,.65,1.88.82,2.47A3.48,3.48,0,0,1,192,194.36Z" style="fill:#263238"></path><path d="M294,180.82c.05.09-1.41.77-3.47,2.28a27.53,27.53,0,0,0-3.39,2.93,30.76,30.76,0,0,0-3.44,4.28,31.5,31.5,0,0,0-2.53,4.86,29.52,29.52,0,0,0-1.33,4.29c-.54,2.5-.58,4.1-.68,4.1a4.19,4.19,0,0,1,0-1.13,11.8,11.8,0,0,1,.1-1.31c.07-.51.11-1.1.25-1.74a25.88,25.88,0,0,1,1.24-4.38,29,29,0,0,1,2.55-5,28.46,28.46,0,0,1,3.53-4.32,24.42,24.42,0,0,1,3.51-2.9,14,14,0,0,1,1.49-.93,9.77,9.77,0,0,1,1.16-.62A4.12,4.12,0,0,1,294,180.82Z" style="fill:#263238"></path><path d="M204.4,392.9a52,52,0,0,0-4,9.82,3.07,3.07,0,0,0,0,2.57,2,2,0,0,0,1.88.78,4,4,0,0,0,1.93-.87,15.35,15.35,0,0,0,3.71-5Z" style="fill:#ffbe9d"></path><path d="M226.67,384.41s3.94,13.72,2.8,14.56-3.61-1-3.61-1L224,396.44Z" style="fill:#ffbe9d"></path><path d="M205,359s-3.34,29.19-2.77,31.27c0,0,4.43,9.93,5.68,10.8s3.62-.25,3.5-2.62c0,0,.62,4.37,4.25,1.87,0,0,3.87.38,5.37-1.75s4.87-.37,5.62-4.87a37.37,37.37,0,0,0,0-9.75L225,376.11l2.85-5.34" style="fill:#ffbe9d"></path><path d="M227.84,370.77a1.68,1.68,0,0,1-.16.37c-.13.27-.3.62-.52,1.05l-2.06,4v-.08c.35,1.62.76,3.52,1.22,5.68a30.48,30.48,0,0,1,.82,7.35,29.4,29.4,0,0,1-.25,4.23,6.58,6.58,0,0,1-.63,2.19,3.36,3.36,0,0,1-1.77,1.61c-.75.32-1.54.44-2.22.75a2.46,2.46,0,0,0-.9.62,6.9,6.9,0,0,1-.84.91,5.31,5.31,0,0,1-2.36,1,10.15,10.15,0,0,1-2.59.16l.17-.05-.64.39a5.6,5.6,0,0,1-.71.3,2.38,2.38,0,0,1-1.62-.05,2.55,2.55,0,0,1-1.16-1.16,4.81,4.81,0,0,1-.52-1.52l.52,0a3.08,3.08,0,0,1-1.1,2.57,2.6,2.6,0,0,1-2,.58,1.66,1.66,0,0,1-1-.5,5.61,5.61,0,0,1-.61-.82c-.7-1.11-1.27-2.24-1.84-3.35-1.13-2.24-2.14-4.44-3.09-6.55v0h0a10.76,10.76,0,0,1-.06-1.77c0-.57.06-1.13.08-1.68.07-1.1.15-2.18.24-3.23.17-2.11.37-4.11.56-6,.37-3.79.74-7.12,1.06-9.89s.59-4.91.77-6.46l.24-1.72A2.2,2.2,0,0,1,205,359a4.48,4.48,0,0,1,0,.6c0,.43-.09,1-.15,1.73-.16,1.55-.37,3.74-.64,6.47s-.59,6.12-.95,9.89c-.17,1.9-.35,3.9-.51,6-.09,1-.16,2.12-.22,3.22a22.51,22.51,0,0,0,0,3.28v0c1,2.1,2,4.29,3.1,6.51.56,1.11,1.14,2.24,1.82,3.31.36.53.66,1,1.24,1.09a2.1,2.1,0,0,0,1.62-.47,2.55,2.55,0,0,0,.91-2.15l.52-.05a3,3,0,0,0,1.37,2.29,2.68,2.68,0,0,0,2.47-.59l.07-.05h.1a7,7,0,0,0,4.58-1.05,5.69,5.69,0,0,0,.8-.87,3.05,3.05,0,0,1,1.06-.73c.77-.34,1.56-.45,2.24-.74,1.42-.52,2-2,2.13-3.43a28.41,28.41,0,0,0,.28-4.16,30.85,30.85,0,0,0-.74-7.29l-1.13-5.69v-.05l0,0,2.17-3.92.58-1A1.93,1.93,0,0,1,227.84,370.77Z" style="fill:#eb996e"></path><path d="M227.11,399.48a11.38,11.38,0,0,0-2.3-3.38c-.87-1-2.05-2.09-3.32-1.72a2.41,2.41,0,0,0-1.46,2.49,7,7,0,0,0,1.1,2.88,25.7,25.7,0,0,1-3-3.17c-1-1-2.6-1.78-3.92-1.18a3.16,3.16,0,0,0-1.52,3.37,6.62,6.62,0,0,0,1.21,3.11c-.95-1-1.76-1.59-3-1.17a2.54,2.54,0,0,0-1.26,3.22,8.64,8.64,0,0,0,2,3.35,4.8,4.8,0,0,0,1.87,1.11,3.35,3.35,0,0,0,3.33-1.69,4.32,4.32,0,0,0,3.65-.1,5.32,5.32,0,0,0,2.51-3.21c1.14.67,2.48,1.27,3.66,0A3.87,3.87,0,0,0,227.11,399.48Z" style="fill:#ffbe9d"></path><path d="M227.11,399.48a2.11,2.11,0,0,1,.21.52,4.55,4.55,0,0,1,.14,1.62,3.16,3.16,0,0,1-1.24,2.26,2.1,2.1,0,0,1-1.64.36,5.34,5.34,0,0,1-1.73-.7l.26-.12A5.34,5.34,0,0,1,221,406.5a4.3,4.3,0,0,1-2,.74,4,4,0,0,1-2.27-.34l.31-.1a3.19,3.19,0,0,1-1.31,1.34,3.44,3.44,0,0,1-1.86.55,4.9,4.9,0,0,1-3.26-2.25,9.37,9.37,0,0,1-1-1.82,3.72,3.72,0,0,1-.34-2.15,2.53,2.53,0,0,1,1.25-1.89,2.48,2.48,0,0,1,2.31.05,5.7,5.7,0,0,1,1.29,1.07l-.4.33a7.41,7.41,0,0,1-1-2,6.19,6.19,0,0,1-.27-2.23,3.41,3.41,0,0,1,.91-2,2.59,2.59,0,0,1,2-.78,5.17,5.17,0,0,1,3.44,2,16.09,16.09,0,0,0,2.43,2.6l-.31.29a7.13,7.13,0,0,1-1.1-2.95,2.71,2.71,0,0,1,1.25-2.55,2,2,0,0,1,1.34-.17,3.08,3.08,0,0,1,1.11.52,8,8,0,0,1,1.5,1.46,13.06,13.06,0,0,1,1.69,2.36,4.47,4.47,0,0,1,.31.7.7.7,0,0,1,.07.25s-.15-.32-.49-.89a15.14,15.14,0,0,0-1.77-2.25,8.23,8.23,0,0,0-1.48-1.38,2,2,0,0,0-2.12-.29,2.35,2.35,0,0,0-1,2.21,6.73,6.73,0,0,0,1.09,2.76l.48.85-.8-.56a16.33,16.33,0,0,1-2.53-2.65,4.76,4.76,0,0,0-3.12-1.84,2.06,2.06,0,0,0-1.65.64,3,3,0,0,0-.76,1.74,5.45,5.45,0,0,0,.25,2,7,7,0,0,0,.93,1.9l-.4.32a5.4,5.4,0,0,0-1.17-1,2,2,0,0,0-1.82,0,2,2,0,0,0-1,1.5,3.22,3.22,0,0,0,.3,1.87,9.21,9.21,0,0,0,.92,1.73,5.37,5.37,0,0,0,1.28,1.36,3.45,3.45,0,0,0,1.59.7,3.27,3.27,0,0,0,2.73-1.6l.12-.21.2.1a3.57,3.57,0,0,0,2,.32,3.91,3.91,0,0,0,1.84-.65,5.12,5.12,0,0,0,2-2.8l0-.25.21.12a5,5,0,0,0,1.6.7,1.89,1.89,0,0,0,1.43-.28,3,3,0,0,0,1.21-2.06A6.07,6.07,0,0,0,227.11,399.48Z" style="fill:#eb996e"></path><path d="M217.25,407c-.1.12-1.22-.86-2.17-2.38a7.14,7.14,0,0,1-1.3-2.95,17.19,17.19,0,0,1,1.74,2.67A27.36,27.36,0,0,1,217.25,407Z" style="fill:#eb996e"></path><path d="M223,403.82c-.16,0-.34-1.05-.93-2.2s-1.3-1.95-1.2-2.06,1,.56,1.67,1.83A3.42,3.42,0,0,1,223,403.82Z" style="fill:#eb996e"></path><path d="M289.72,138.45c.79-4.86-1.23-9.67-2.49-14.44-1.84-6.94-2.09-14.19-2.44-21.36s-.84-14.44-3.1-21.26-6.53-13.24-12.85-16.67S254,61.49,248.7,66.32l4.37,18.11a341.34,341.34,0,0,0,7.85,77.6,100.55,100.55,0,0,0,23.51-1c1.59-.26,3.43-.74,4.05-2.23.75-1.81-.79-3.67-1.52-5.49-.95-2.4-.47-5.12.36-7.56S289.3,141,289.72,138.45Z" style="fill:#263238"></path><path d="M259.66,70.17a19.74,19.74,0,0,0-8.54-4.29,6.54,6.54,0,0,0-3.87.05A2.91,2.91,0,0,0,245.31,69l8.43,10.2c1.6,1.29,4,.88,5.79-.17a5.41,5.41,0,0,0,2.82-3.66C262.62,73.34,261.2,71.5,259.66,70.17Z" style="fill:#FF725E"></path><path d="M225,177.07Z" style="fill:#ffbe9d"></path><path d="M205,105.59c.17-15.7,12.53-29.22,28.5-30,16.93-.81,30.94,12.26,31.19,28.72L264,170.65a5.87,5.87,0,0,1-1.26,3.53c-4.28,5.39-11.62,9.33-18,9.76a28.27,28.27,0,0,1-17.15-4.83,5.65,5.65,0,0,1-2.52-5l.77-14.81a.08.08,0,0,0-.09-.1,20.47,20.47,0,0,1-4.14-.41c-3.84-1.23-13.54-5.76-15.86-20.63C205.05,133.2,204.89,119.35,205,105.59Z" style="fill:#ffbe9d"></path><path d="M225.24,128.71c0-.14-1.61-.42-4.25-.76-.67-.06-1.3-.19-1.41-.64a3.33,3.33,0,0,1,.46-2c.64-1.59,1.3-3.26,2-5,2.79-7.12,4.81-13,4.52-13.08s-2.79,5.58-5.58,12.7c-.67,1.76-1.32,3.43-1.93,5a3.71,3.71,0,0,0-.36,2.58,1.69,1.69,0,0,0,1.09,1,4.58,4.58,0,0,0,1.14.15C223.58,128.85,225.23,128.86,225.24,128.71Z" style="fill:#263238"></path><path d="M214,117.15a2.39,2.39,0,0,0,2.33,2.41,2.32,2.32,0,0,0,2.52-2.15,2.39,2.39,0,0,0-2.33-2.42A2.32,2.32,0,0,0,214,117.15Z" style="fill:#263238"></path><path d="M209.73,111c.26.4,2.27-1.11,4.88-.91s4.37,1.93,4.69,1.56c.16-.16-.08-.87-.84-1.67a5.75,5.75,0,0,0-7.65-.52C209.94,110.16,209.6,110.83,209.73,111Z" style="fill:#263238"></path><path d="M241.44,117.15a2.39,2.39,0,0,0,2.34,2.41,2.34,2.34,0,0,0,2.52-2.15A2.39,2.39,0,0,0,244,115,2.34,2.34,0,0,0,241.44,117.15Z" style="fill:#263238"></path><path d="M234.86,111.93c.34.37,2.26-1.41,5.08-1.58s5,1.29,5.26.88c.14-.18-.21-.85-1.15-1.53a6.59,6.59,0,0,0-8.26.56C235,111.06,234.69,111.77,234.86,111.93Z" style="fill:#263238"></path><path d="M225.91,159.17s10.11.82,22.8-6.64c0,0-4.07,13.13-23.05,11.37Z" style="fill:#eb996e"></path><path d="M226.31,134.92a4.76,4.76,0,0,1,4.24-1.72,4.29,4.29,0,0,1,3,1.57,2.64,2.64,0,0,1,.19,3.07,3.23,3.23,0,0,1-3.44.85,9.73,9.73,0,0,1-3.33-2,2.85,2.85,0,0,1-.75-.76.86.86,0,0,1,0-1" style="fill:#eb996e"></path><path d="M232.94,130.5c-.43,0-.45,2.77-2.89,4.75s-5.47,1.67-5.5,2.06c0,.18.67.54,1.95.58a7.23,7.23,0,0,0,4.59-1.56,6.07,6.07,0,0,0,2.24-4C233.45,131.17,233.13,130.48,232.94,130.5Z" style="fill:#263238"></path><path d="M245.76,105.43c-.11-.73-2.74-1-5.67-1.94s-5.19-2.3-5.72-1.77c-.24.26,0,1,.88,1.86a10.17,10.17,0,0,0,4,2.4,10.29,10.29,0,0,0,4.67.43C245.12,106.2,245.8,105.78,245.76,105.43Z" style="fill:#263238"></path><path d="M216.15,101.32c-.7-.27-2,1.16-3.81,2.28s-3.65,1.69-3.71,2.43c0,.35.53.71,1.5.79a6.17,6.17,0,0,0,3.59-1,6.36,6.36,0,0,0,2.47-2.81C216.55,102.11,216.46,101.47,216.15,101.32Z" style="fill:#263238"></path><path d="M231.45,72.14c1.52-2.23,4.14-3.11,7-3.34,11.69-.94,24.12,6.94,29.92,17.13s5.12,24.76-.38,35.12l-4.39.45c-9-1.17-22.44-27.43-34.13-42.23C228,77.43,230.12,74.07,231.45,72.14Z" style="fill:#263238"></path><path d="M208.76,78.17C214,73,222.32,66.84,232.1,71.37c1.29,2.92-1.95,6.36-4.59,8.32-3.87,2.87-7.2,4.75-9.75,6.82C212.61,90.69,206.09,97.75,205,106c-.07.52-.47.57-1,.45-.67-.15-2-3.65-2.47-8.21C200.56,88.53,203.54,83.33,208.76,78.17Z" style="fill:#263238"></path><path d="M261.09,116c.28-.13,11.27-3.61,11.16,7.68s-11.43,8.85-11.44,8.53S261.09,116,261.09,116Z" style="fill:#ffbe9d"></path><path d="M264.3,128c.05,0,.19.13.52.29a2,2,0,0,0,1.47.05c1.2-.43,2.22-2.31,2.3-4.35a6.54,6.54,0,0,0-.52-2.82,2.27,2.27,0,0,0-1.47-1.52,1,1,0,0,0-1.16.52c-.16.32-.09.54-.15.56s-.24-.19-.14-.65a1.26,1.26,0,0,1,.45-.71,1.46,1.46,0,0,1,1.09-.27,2.72,2.72,0,0,1,2,1.77,6.69,6.69,0,0,1,.66,3.15c-.1,2.27-1.28,4.39-2.92,4.85a2.11,2.11,0,0,1-1.8-.32C264.32,128.27,264.26,128,264.3,128Z" style="fill:#eb996e"></path><path d="M206.33,80.3a12.12,12.12,0,0,0,3.26.61,47.12,47.12,0,0,0,8,.14,45.76,45.76,0,0,0,7.91-1.24,12.55,12.55,0,0,0,3.15-1,20.68,20.68,0,0,0-3.26.56,66.68,66.68,0,0,1-7.85,1,68.43,68.43,0,0,1-7.91.06A21.64,21.64,0,0,0,206.33,80.3Z" style="fill:#455a64"></path><path d="M202.12,88.19a6.38,6.38,0,0,0,2.42.7,18.91,18.91,0,0,0,11.87-2,6.67,6.67,0,0,0,2.07-1.44c-.11-.2-3.34,2-8,2.7S202.15,88,202.12,88.19Z" style="fill:#455a64"></path><path d="M269.6,89.85c0-.14-2.46.17-6.38-.14a49.83,49.83,0,0,1-6.82-1.06,61.75,61.75,0,0,1-8.07-2.54,68.81,68.81,0,0,1-7.63-3.66,63.21,63.21,0,0,1-5.81-3.75c-3.19-2.33-4.94-4-5-4A7.47,7.47,0,0,0,231,76c.39.4.89.86,1.49,1.37s1.27,1.11,2.07,1.7A53.88,53.88,0,0,0,240.38,83a62.64,62.64,0,0,0,7.69,3.75,58.5,58.5,0,0,0,8.18,2.52,44.18,44.18,0,0,0,6.94.92,24.44,24.44,0,0,0,2.68,0,14.41,14.41,0,0,0,2-.12A7.72,7.72,0,0,0,269.6,89.85Z" style="fill:#455a64"></path><path d="M230.4,78.74a9.31,9.31,0,0,0,.82,1.61,20,20,0,0,0,1.1,1.81c.46.69,1,1.5,1.6,2.32A46.5,46.5,0,0,0,238.71,90a49.8,49.8,0,0,0,7,5.66,48.21,48.21,0,0,0,7.93,4.21,43.88,43.88,0,0,0,7,2.2c1,.26,2,.37,2.76.52s1.53.21,2.11.26a8.87,8.87,0,0,0,1.81.07c0-.14-2.56-.33-6.57-1.33a49.79,49.79,0,0,1-6.85-2.31,52.15,52.15,0,0,1-7.8-4.2,53.38,53.38,0,0,1-6.89-5.54,51.39,51.39,0,0,1-4.85-5.38C231.77,80.92,230.52,78.66,230.4,78.74Z" style="fill:#455a64"></path><path d="M238.45,68.8a4.22,4.22,0,0,0-2.27,0,9.71,9.71,0,0,0-4.78,2.67,9,9,0,0,0-1,1.25,6.73,6.73,0,0,0-.63,1.35,16.12,16.12,0,0,0-.76,2.34,3.47,3.47,0,0,0,.05,2.27c.12,0,0-.87.43-2.15a22.42,22.42,0,0,1,.88-2.22,6.92,6.92,0,0,1,.6-1.22A8.7,8.7,0,0,1,231.9,72a10.67,10.67,0,0,1,4.41-2.68C237.59,68.93,238.45,68.92,238.45,68.8Z" style="fill:#455a64"></path><path d="M256.6,111.9a31.65,31.65,0,0,1-6.72-1.54A28.74,28.74,0,0,1,237,100.28a45.32,45.32,0,0,1-6.76-15.15c-.53-2.07-.88-3.78-1.12-4.95a10.3,10.3,0,0,0-.42-1.83,9.57,9.57,0,0,0,.15,1.87c.16,1.2.44,2.92.91,5a42.69,42.69,0,0,0,6.67,15.44,28.09,28.09,0,0,0,13.31,10.14,20.64,20.64,0,0,0,5,1.07,12.71,12.71,0,0,0,1.39,0C256.43,111.94,256.6,111.93,256.6,111.9Z" style="fill:#263238"></path><path d="M200.38,122.71a1.82,1.82,0,0,0,1.34-.13,2.52,2.52,0,0,0,1.05-1.18,2.58,2.58,0,0,0,0-2,7.39,7.39,0,0,0-1.49-2.15,16.11,16.11,0,0,1-2-2.4,4.45,4.45,0,0,1-.63-1.64,3.78,3.78,0,0,1,.19-1.85,8.63,8.63,0,0,1,2.15-3.08,12.43,12.43,0,0,0,2.28-2.78,5.46,5.46,0,0,0,.47-3.19c-.28-2.12-1.14-4-1.33-5.64a6.25,6.25,0,0,1,.54-3.9,3.54,3.54,0,0,1,.68-.85,1.15,1.15,0,0,1,.31-.21,6.8,6.8,0,0,0-.81,1.15,6.31,6.31,0,0,0-.35,3.75c.22,1.62,1.11,3.41,1.43,5.63a5.79,5.79,0,0,1-.49,3.49,12.66,12.66,0,0,1-2.36,2.91,8.36,8.36,0,0,0-2,2.89,3.45,3.45,0,0,0,.37,3.07,15.7,15.7,0,0,0,1.95,2.36,7.48,7.48,0,0,1,1.51,2.31,2.87,2.87,0,0,1-.05,2.29,2.66,2.66,0,0,1-1.22,1.24,1.61,1.61,0,0,1-1.08.12A.72.72,0,0,1,200.38,122.71Z" style="fill:#263238"></path><path d="M244.83,120.71c-1.47.25-2.61.54-3.93.71a9.85,9.85,0,0,0-3.82,1.09,4,4,0,0,0-2.09,3.21,3.8,3.8,0,0,0,1.9,3.13,7.29,7.29,0,0,0,3.67.93,14.82,14.82,0,0,0,6.37-1.43c2-.88,3.3-2.08,3.34-3.74a4,4,0,0,0-1.66-3.31,5.17,5.17,0,0,0-3.78-.59" style="fill:#ffa080"></path><path d="M216.85,125.38a5.86,5.86,0,0,0-2.51-2.62h0a8.29,8.29,0,0,0-5.45-1.33,4.19,4.19,0,0,0-2.06.58,2.71,2.71,0,0,0-.64,3.49c1.13,2.4,4.43,3.9,7.4,3.38a5,5,0,0,0,2.56-1.17A2.13,2.13,0,0,0,216.85,125.38Z" style="fill:#ffa080"></path><path d="M270.23,116.61a2.1,2.1,0,0,1,.12-.58c.08-.38.25-.93.42-1.65a52.83,52.83,0,0,0,1.12-6.14A42.63,42.63,0,0,0,272,99a35.92,35.92,0,0,0-2.7-10.92A27.8,27.8,0,0,0,266.48,83a30.42,30.42,0,0,0-3.57-4.09,38.11,38.11,0,0,0-7.42-5.46,52.34,52.34,0,0,0-5.6-2.76c-.67-.3-1.21-.5-1.57-.66a3.73,3.73,0,0,1-.54-.25,2,2,0,0,1,.58.15c.37.13.92.3,1.61.57a45.55,45.55,0,0,1,5.7,2.63,37,37,0,0,1,7.57,5.43,29.67,29.67,0,0,1,3.65,4.15,27.84,27.84,0,0,1,2.93,5.16A35.9,35.9,0,0,1,272.52,99a41.67,41.67,0,0,1-.26,9.32,43,43,0,0,1-1.3,6.14c-.19.72-.39,1.26-.51,1.63A3,3,0,0,1,270.23,116.61Z" style="fill:#455a64"></path><path d="M261.55,152.36s-.13-.11-.33-.36a7.21,7.21,0,0,1-.77-1.15,10.92,10.92,0,0,1-1.4-4.89,11.38,11.38,0,0,1,.39-3.53,22.09,22.09,0,0,1,1.63-3.7c.6-1.23,1.07-2.74.32-4s-2.16-2.1-3.13-3.55a2.67,2.67,0,0,1-.23-2.55,11.54,11.54,0,0,1,1.39-2,4.14,4.14,0,0,0,.45-4,11.19,11.19,0,0,0-2-3.36,22.25,22.25,0,0,1-2-2.88,5.24,5.24,0,0,1-.28-5,2.74,2.74,0,0,1,.93-1.05c.27-.17.43-.23.43-.21a3.7,3.7,0,0,0-1.18,1.35,5.1,5.1,0,0,0,.42,4.72,21.81,21.81,0,0,0,2.06,2.79,11.5,11.5,0,0,1,2.13,3.47,5.68,5.68,0,0,1,.34,2.23,4,4,0,0,1-.83,2.22,10.65,10.65,0,0,0-1.32,1.87,2.12,2.12,0,0,0,.19,2.06c.84,1.3,2.33,2.14,3.14,3.59a3.59,3.59,0,0,1,.39,2.35,7.91,7.91,0,0,1-.72,2.12,22.41,22.41,0,0,0-1.66,3.61,11.34,11.34,0,0,0,.78,8.21C261.17,151.81,261.59,152.33,261.55,152.36Z" style="fill:#263238"></path><path d="M297.26,148c.07.14-.14.5-.84.77a3.81,3.81,0,0,1-3.14-.46,5.46,5.46,0,0,1-1.76-1.6,5.71,5.71,0,0,1-.66-1.28,6.59,6.59,0,0,1-.35-1.44,12.35,12.35,0,0,1,1.14-6.24c.82-2,1.81-3.95,1.9-5.73s-.67-3.74-2-5.89a75.81,75.81,0,0,1-4.66-7.47,36.94,36.94,0,0,1-3-9.38c-1.22-6.51-1.29-12.57-2-17.81a40.91,40.91,0,0,0-3.7-13.17,22.22,22.22,0,0,0-5.53-7.19c-.86-.67-1.54-1.22-2-1.57s-.71-.67-.66-.84.42-.22,1.06-.13a9.62,9.62,0,0,1,2.71.82,19.06,19.06,0,0,1,7.65,7.07,38.39,38.39,0,0,1,5.26,14.31c1,5.58,1.2,11.61,2.32,17.53a35.44,35.44,0,0,0,2.49,8.17c1.06,2.42,2.74,4.64,4.19,7.22a20.33,20.33,0,0,1,1.8,4.15,11.17,11.17,0,0,1,.38,4.63,12.92,12.92,0,0,1-1.28,3.95c-.54,1.1-1.11,2.05-1.58,2.91a10.69,10.69,0,0,0-1.57,4.47,4.51,4.51,0,0,0,0,.91,3.39,3.39,0,0,0,.2.74,4,4,0,0,0,.81,1.23C295.79,148.08,297.11,147.68,297.26,148Z" style="fill:#263238"></path></g><g id="freepik--Table--inject-127"><path d="M445.1,478.69c0,.15-90,.27-201.09.27s-201.11-.12-201.11-.27,90-.26,201.11-.26S445.1,478.55,445.1,478.69Z" style="fill:#263238"></path></g></svg>
